<svg width="3263" height="1829" xmlns="http://www.w3.org/2000/svg" xmlns:xlink="http://www.w3.org/1999/xlink" xml:space="preserve" overflow="hidden"><defs><linearGradient x1="2225.45" y1="541.874" x2="2225.45" y2="2361.75" gradientUnits="userSpaceOnUse" spreadMethod="reflect" id="fill0"><stop offset="0" stop-color="#6083CB" stop-opacity="1"/><stop offset="0.5" stop-color="#3E70CA" stop-opacity="1"/><stop offset="1" stop-color="#2E61BA" stop-opacity="1"/></linearGradient><linearGradient x1="1251.5" y1="692" x2="1251.5" y2="1030" gradientUnits="userSpaceOnUse" spreadMethod="reflect" id="fill1"><stop offset="0" stop-color="#F18C55" stop-opacity="1"/><stop offset="0.5" stop-color="#F67B28" stop-opacity="1"/><stop offset="1" stop-color="#E56B17" stop-opacity="1"/></linearGradient><linearGradient x1="2486" y1="692" x2="2486" y2="1030" gradientUnits="userSpaceOnUse" spreadMethod="reflect" id="fill2"><stop offset="0" stop-color="#F18C55" stop-opacity="1"/><stop offset="0.5" stop-color="#F67B28" stop-opacity="1"/><stop offset="1" stop-color="#E56B17" stop-opacity="1"/></linearGradient><linearGradient x1="970" y1="1186" x2="970" y2="1445" gradientUnits="userSpaceOnUse" spreadMethod="reflect" id="fill3"><stop offset="0" stop-color="#81B861" stop-opacity="1"/><stop offset="0.5" stop-color="#6FB242" stop-opacity="1"/><stop offset="1" stop-color="#61A235" stop-opacity="1"/></linearGradient><linearGradient x1="1147.5" y1="1549" x2="1147.5" y2="2017" gradientUnits="userSpaceOnUse" spreadMethod="reflect" id="fill4"><stop offset="0" stop-color="#81B861" stop-opacity="1"/><stop offset="0.5" stop-color="#6FB242" stop-opacity="1"/><stop offset="1" stop-color="#61A235" stop-opacity="1"/></linearGradient><linearGradient x1="2460" y1="1679" x2="2460" y2="2017" gradientUnits="userSpaceOnUse" spreadMethod="reflect" id="fill5"><stop offset="0" stop-color="#81B861" stop-opacity="1"/><stop offset="0.5" stop-color="#6FB242" stop-opacity="1"/><stop offset="1" stop-color="#61A235" stop-opacity="1"/></linearGradient><linearGradient x1="3343.5" y1="1367" x2="3343.5" y2="2225" gradientUnits="userSpaceOnUse" spreadMethod="reflect" id="fill6"><stop offset="0" stop-color="#81B861" stop-opacity="1"/><stop offset="0.5" stop-color="#6FB242" stop-opacity="1"/><stop offset="1" stop-color="#61A235" stop-opacity="1"/></linearGradient><linearGradient x1="1810" y1="1965" x2="1810" y2="2329" gradientUnits="userSpaceOnUse" spreadMethod="reflect" id="fill7"><stop offset="0" stop-color="#81B861" stop-opacity="1"/><stop offset="0.5" stop-color="#6FB242" stop-opacity="1"/><stop offset="1" stop-color="#61A235" stop-opacity="1"/></linearGradient></defs><g transform="translate(-550 -536)"><g><path d="M991.097 1141.07C956.026 929.309 1136.61 734.292 1394.44 705.487 1498.92 693.815 1605.14 711.263 1696.12 755.04 1792.52 605.796 2017.78 549.076 2199.26 628.352 2230.99 642.214 2260.11 659.783 2285.72 680.513 2360.8 556.801 2543.67 506.54 2694.18 568.252 2735.83 585.332 2772.17 610.034 2800.4 640.461 2921.41 523.469 3135.24 509.017 3278.01 608.183 3338.01 649.861 3378.45 707.348 3392.4 770.786 3590.67 815.221 3707.64 983.534 3653.65 1146.72 3649.11 1160.44 3643.42 1173.89 3636.61 1186.95 3795.62 1357 3756.7 1600.72 3549.66 1731.32 3485.21 1771.97 3409.09 1798.3 3328.65 1807.74 3326.86 1990.68 3144.71 2137.8 2921.81 2136.33 2847.34 2135.84 2774.48 2118.45 2711.31 2086.08 2635.92 2291.18 2372.94 2407.1 2123.94 2345 2019.58 2318.97 1929.41 2263.94 1868.82 2189.28 1613.87 2315.59 1282.95 2247.64 1129.7 2037.51 1127.76 2034.86 1125.87 2032.2 1124 2029.52 957.148 2045.56 806.01 1947.76 786.426 1811.08 775.987 1738.22 805.266 1665.3 866.459 1611.75 721.987 1541.88 673.457 1388.54 758.062 1269.24 806.873 1200.41 892.48 1154.92 988.559 1146.74Z" stroke="#4472C4" stroke-width="2.29167" stroke-linecap="butt" stroke-linejoin="miter" stroke-miterlimit="8" stroke-opacity="1" fill="url(#fill0)" fill-rule="evenodd"/><path d="M1046.42 1638.22C984.746 1642.19 923.076 1630.48 869.692 1604.66M1202.36 2005.47C1177.55 2013.59 1151.56 2018.99 1125.03 2021.54M1868.65 2181.94C1849.99 2158.96 1834.37 2134.4 1822.06 2108.68M2730.22 1999.24C2727.47 2026.51 2721.24 2053.45 2711.61 2079.63M3100.13 1502.51C3239.97 1558.42 3328.22 1675.31 3326.98 1802.97M3635.18 1182.5C3612.54 1225.97 3577.96 1264.54 3534.18 1295.17M3392.81 764.47C3396.67 782.024 3398.45 799.843 3398.14 817.678M2747.73 702.405C2760.89 677.857 2778.32 655.001 2799.47 634.548M2263.74 734.742C2269.11 714.457 2277.53 694.798 2288.81 676.221M1695.76 754.617C1728.68 770.456 1759.13 789.521 1786.45 811.392M1006.93 1200.82C999.749 1181.28 994.457 1161.31 991.108 1141.08" stroke="#4472C4" stroke-width="2.29167" stroke-linecap="butt" stroke-linejoin="miter" stroke-miterlimit="8" stroke-opacity="1" fill="none" fill-rule="evenodd"/><text fill="#FFFFFF" fill-opacity="1" font-family="Calibri,Calibri_MSFontService,sans-serif" font-style="normal" font-variant="normal" font-weight="700" font-stretch="normal" font-size="110" text-anchor="start" direction="ltr" writing-mode="lr-tb" unicode-bidi="normal" text-decoration="none" transform="matrix(1 0 0 1 1675.63 1374)">völkisch</text><text fill="#FFFFFF" fill-opacity="1" font-family="Calibri,Calibri_MSFontService,sans-serif" font-style="normal" font-variant="normal" font-weight="700" font-stretch="normal" font-size="110" text-anchor="start" direction="ltr" writing-mode="lr-tb" unicode-bidi="normal" text-decoration="none" transform="matrix(1 0 0 1 2065.9 1374)">movement</text><text fill="#FFFFFF" fill-opacity="1" font-family="Calibri,Calibri_MSFontService,sans-serif" font-style="normal" font-variant="normal" font-weight="700" font-stretch="normal" font-size="110" text-anchor="start" direction="ltr" writing-mode="lr-tb" unicode-bidi="normal" text-decoration="none" transform="matrix(1 0 0 1 1573.58 1506)">(“</text><text fill="#FFFFFF" fill-opacity="1" font-family="Calibri,Calibri_MSFontService,sans-serif" font-style="normal" font-variant="normal" font-weight="700" font-stretch="normal" font-size="110" text-anchor="start" direction="ltr" writing-mode="lr-tb" unicode-bidi="normal" text-decoration="none" transform="matrix(1 0 0 1 1656.08 1506)">völkische</text><text fill="#FFFFFF" fill-opacity="1" font-family="Calibri,Calibri_MSFontService,sans-serif" font-style="normal" font-variant="normal" font-weight="700" font-stretch="normal" font-size="110" text-anchor="start" direction="ltr" writing-mode="lr-tb" unicode-bidi="normal" text-decoration="none" transform="matrix(1 0 0 1 2101.93 1506)">Bewegung</text><text fill="#FFFFFF" fill-opacity="1" font-family="Calibri,Calibri_MSFontService,sans-serif" font-style="normal" font-variant="normal" font-weight="700" font-stretch="normal" font-size="110" text-anchor="start" direction="ltr" writing-mode="lr-tb" unicode-bidi="normal" text-decoration="none" transform="matrix(1 0 0 1 2581.53 1506)">”)</text><rect x="667" y="692" width="1169" height="338" stroke="#ED7D31" stroke-width="2.29167" stroke-linecap="butt" stroke-linejoin="miter" stroke-miterlimit="8" stroke-opacity="1" fill="url(#fill1)"/><text fill="#FFFFFF" fill-opacity="1" font-family="Calibri,Calibri_MSFontService,sans-serif" font-style="normal" font-variant="normal" font-weight="400" font-stretch="normal" font-size="83" text-anchor="start" direction="ltr" writing-mode="lr-tb" unicode-bidi="normal" text-decoration="none" transform="matrix(1 0 0 1 699.759 839)">originated in 19</text><text fill="#FFFFFF" fill-opacity="1" font-family="Calibri,Calibri_MSFontService,sans-serif" font-style="normal" font-variant="normal" font-weight="400" font-stretch="normal" font-size="55" text-anchor="start" direction="ltr" writing-mode="lr-tb" unicode-bidi="normal" text-decoration="none" transform="matrix(1 0 0 1 1226.34 814)">th</text><text fill="#FFFFFF" fill-opacity="1" font-family="Calibri,Calibri_MSFontService,sans-serif" font-style="normal" font-variant="normal" font-weight="400" font-stretch="normal" font-size="83" text-anchor="start" direction="ltr" writing-mode="lr-tb" unicode-bidi="normal" text-decoration="none" transform="matrix(1 0 0 1 1292.22 839)">c., more </text><text fill="#FFFFFF" fill-opacity="1" font-family="Calibri,Calibri_MSFontService,sans-serif" font-style="normal" font-variant="normal" font-weight="400" font-stretch="normal" font-size="83" text-anchor="start" direction="ltr" writing-mode="lr-tb" unicode-bidi="normal" text-decoration="none" transform="matrix(1 0 0 1 699.759 938)">clearly shaped in 1890ies</text><rect x="2018" y="692" width="936" height="338" stroke="#ED7D31" stroke-width="2.29167" stroke-linecap="butt" stroke-linejoin="miter" stroke-miterlimit="8" stroke-opacity="1" fill="url(#fill2)"/><text fill="#FFFFFF" fill-opacity="1" font-family="Calibri,Calibri_MSFontService,sans-serif" font-style="normal" font-variant="normal" font-weight="400" font-stretch="normal" font-size="83" text-anchor="start" direction="ltr" writing-mode="lr-tb" unicode-bidi="normal" text-decoration="none" transform="matrix(1 0 0 1 2051.09 839)">associations, parties, </text><text fill="#FFFFFF" fill-opacity="1" font-family="Calibri,Calibri_MSFontService,sans-serif" font-style="normal" font-variant="normal" font-weight="400" font-stretch="normal" font-size="83" text-anchor="start" direction="ltr" writing-mode="lr-tb" unicode-bidi="normal" text-decoration="none" transform="matrix(1 0 0 1 2051.09 938)">publications</text><rect x="2876" y="900" width="935" height="338" stroke="#ED7D31" stroke-width="2.29167" stroke-linecap="butt" stroke-linejoin="miter" stroke-miterlimit="8" stroke-opacity="1" fill="#F4B183" fill-opacity="1"/><text fill="#FFFFFF" fill-opacity="1" font-family="Arial,Arial_MSFontService,sans-serif" font-style="normal" font-variant="normal" font-weight="400" font-stretch="normal" font-size="83" text-anchor="start" direction="ltr" writing-mode="lr-tb" unicode-bidi="normal" text-decoration="none" transform="matrix(1 0 0 1 2908.67 997)">•</text><text fill="#FFFFFF" fill-opacity="1" font-family="Calibri,Calibri_MSFontService,sans-serif" font-style="normal" font-variant="normal" font-weight="400" font-stretch="normal" font-size="83" text-anchor="start" direction="ltr" writing-mode="lr-tb" unicode-bidi="normal" text-decoration="none" transform="matrix(1 0 0 1 3011.79 997)">Alldeutscher</text><text fill="#FFFFFF" fill-opacity="1" font-family="Calibri,Calibri_MSFontService,sans-serif" font-style="normal" font-variant="normal" font-weight="400" font-stretch="normal" font-size="83" text-anchor="start" direction="ltr" writing-mode="lr-tb" unicode-bidi="normal" text-decoration="none" transform="matrix(1 0 0 1 3452.36 997)">Verband</text><text fill="#FFFFFF" fill-opacity="1" font-family="Arial,Arial_MSFontService,sans-serif" font-style="normal" font-variant="normal" font-weight="400" font-stretch="normal" font-size="83" text-anchor="start" direction="ltr" writing-mode="lr-tb" unicode-bidi="normal" text-decoration="none" transform="matrix(1 0 0 1 2908.67 1096)">•</text><text fill="#FFFFFF" fill-opacity="1" font-family="Calibri,Calibri_MSFontService,sans-serif" font-style="normal" font-variant="normal" font-weight="400" font-stretch="normal" font-size="83" text-anchor="start" direction="ltr" writing-mode="lr-tb" unicode-bidi="normal" text-decoration="none" transform="matrix(1 0 0 1 3011.79 1096)">Thule</text><text fill="#FFFFFF" fill-opacity="1" font-family="Calibri,Calibri_MSFontService,sans-serif" font-style="normal" font-variant="normal" font-weight="400" font-stretch="normal" font-size="83" text-anchor="start" direction="ltr" writing-mode="lr-tb" unicode-bidi="normal" text-decoration="none" transform="matrix(1 0 0 1 3199.13 1096)">-</text><text fill="#FFFFFF" fill-opacity="1" font-family="Calibri,Calibri_MSFontService,sans-serif" font-style="normal" font-variant="normal" font-weight="400" font-stretch="normal" font-size="83" text-anchor="start" direction="ltr" writing-mode="lr-tb" unicode-bidi="normal" text-decoration="none" transform="matrix(1 0 0 1 3224.34 1096)">Gesellschaft</text><text fill="#FFFFFF" fill-opacity="1" font-family="Calibri,Calibri_MSFontService,sans-serif" font-style="normal" font-variant="normal" font-weight="400" font-stretch="normal" font-size="83" text-anchor="start" direction="ltr" writing-mode="lr-tb" unicode-bidi="normal" text-decoration="none" transform="matrix(1 0 0 1 3011.79 1195)">(secret society)</text><path d="M554 1315.5C554 1243.98 740.25 1186 970 1186 1199.75 1186 1386 1243.98 1386 1315.5 1386 1387.02 1199.75 1445 970 1445 740.25 1445 554 1387.02 554 1315.5Z" stroke="#70AD47" stroke-width="2.29167" stroke-linecap="butt" stroke-linejoin="miter" stroke-miterlimit="8" stroke-opacity="1" fill="url(#fill3)" fill-rule="evenodd"/><text fill="#FFFFFF" fill-opacity="1" font-family="Calibri,Calibri_MSFontService,sans-serif" font-style="normal" font-variant="normal" font-weight="400" font-stretch="normal" font-size="83" text-anchor="start" direction="ltr" writing-mode="lr-tb" unicode-bidi="normal" text-decoration="none" transform="matrix(1 0 0 1 802.205 1293)">extremely </text><text fill="#FFFFFF" fill-opacity="1" font-family="Calibri,Calibri_MSFontService,sans-serif" font-style="normal" font-variant="normal" font-weight="400" font-stretch="normal" font-size="83" text-anchor="start" direction="ltr" writing-mode="lr-tb" unicode-bidi="normal" text-decoration="none" transform="matrix(1 0 0 1 767.051 1392)">nationalistic</text><path d="M589 1783C589 1653.77 839.049 1549 1147.5 1549 1455.95 1549 1706 1653.77 1706 1783 1706 1912.23 1455.95 2017 1147.5 2017 839.049 2017 589 1912.23 589 1783Z" stroke="#70AD47" stroke-width="2.29167" stroke-linecap="butt" stroke-linejoin="miter" stroke-miterlimit="8" stroke-opacity="1" fill="url(#fill4)" fill-rule="evenodd"/><text fill="#FFFFFF" fill-opacity="1" font-family="Calibri,Calibri_MSFontService,sans-serif" font-style="normal" font-variant="normal" font-weight="400" font-stretch="normal" font-size="83" text-anchor="start" direction="ltr" writing-mode="lr-tb" unicode-bidi="normal" text-decoration="none" transform="matrix(1 0 0 1 1046.85 1613)">racist:</text><text fill="#FFFFFF" fill-opacity="1" font-family="Calibri,Calibri_MSFontService,sans-serif" font-style="normal" font-variant="normal" font-weight="400" font-stretch="normal" font-size="83" text-anchor="start" direction="ltr" writing-mode="lr-tb" unicode-bidi="normal" text-decoration="none" transform="matrix(1 0 0 1 818.644 1712)">pure German blood </text><text fill="#FFFFFF" fill-opacity="1" font-family="Calibri,Calibri_MSFontService,sans-serif" font-style="normal" font-variant="normal" font-weight="400" font-stretch="normal" font-size="83" text-anchor="start" direction="ltr" writing-mode="lr-tb" unicode-bidi="normal" text-decoration="none" transform="matrix(1 0 0 1 787.591 1811)">and racial hygiene for </text><text fill="#FFFFFF" fill-opacity="1" font-family="Calibri,Calibri_MSFontService,sans-serif" font-style="normal" font-variant="normal" font-weight="400" font-stretch="normal" font-size="83" text-anchor="start" direction="ltr" writing-mode="lr-tb" unicode-bidi="normal" text-decoration="none" transform="matrix(1 0 0 1 894.681 1910)">German nation</text><path d="M2044 1848C2044 1754.66 2230.25 1679 2460 1679 2689.75 1679 2876 1754.66 2876 1848 2876 1941.34 2689.75 2017 2460 2017 2230.25 2017 2044 1941.34 2044 1848Z" stroke="#70AD47" stroke-width="2.29167" stroke-linecap="butt" stroke-linejoin="miter" stroke-miterlimit="8" stroke-opacity="1" fill="url(#fill5)" fill-rule="evenodd"/><text fill="#FFFFFF" fill-opacity="1" font-family="Calibri,Calibri_MSFontService,sans-serif" font-style="normal" font-variant="normal" font-weight="400" font-stretch="normal" font-size="83" text-anchor="start" direction="ltr" writing-mode="lr-tb" unicode-bidi="normal" text-decoration="none" transform="matrix(1 0 0 1 2363.05 1826)">Social </text><text fill="#FFFFFF" fill-opacity="1" font-family="Calibri,Calibri_MSFontService,sans-serif" font-style="normal" font-variant="normal" font-weight="400" font-stretch="normal" font-size="83" text-anchor="start" direction="ltr" writing-mode="lr-tb" unicode-bidi="normal" text-decoration="none" transform="matrix(1 0 0 1 2273.63 1925)">Darwinistic</text><path d="M2928 1796C2928 1559.07 3114.03 1367 3343.5 1367 3572.97 1367 3759 1559.07 3759 1796 3759 2032.93 3572.97 2225 3343.5 2225 3114.03 2225 2928 2032.93 2928 1796Z" stroke="#70AD47" stroke-width="2.29167" stroke-linecap="butt" stroke-linejoin="miter" stroke-miterlimit="8" stroke-opacity="1" fill="url(#fill6)" fill-rule="evenodd"/><text fill="#FFFFFF" fill-opacity="1" font-family="Calibri,Calibri_MSFontService,sans-serif" font-style="normal" font-variant="normal" font-weight="400" font-stretch="normal" font-size="83" text-anchor="start" direction="ltr" writing-mode="lr-tb" unicode-bidi="normal" text-decoration="none" transform="matrix(1 0 0 1 3190.43 1527)">religious:</text><text fill="#FFFFFF" fill-opacity="1" font-family="Calibri,Calibri_MSFontService,sans-serif" font-style="normal" font-variant="normal" font-weight="400" font-stretch="normal" font-size="83" text-anchor="start" direction="ltr" writing-mode="lr-tb" unicode-bidi="normal" text-decoration="none" transform="matrix(1 0 0 1 3162.11 1626)">non</text><text fill="#FFFFFF" fill-opacity="1" font-family="Calibri,Calibri_MSFontService,sans-serif" font-style="normal" font-variant="normal" font-weight="400" font-stretch="normal" font-size="83" text-anchor="start" direction="ltr" writing-mode="lr-tb" unicode-bidi="normal" text-decoration="none" transform="matrix(1 0 0 1 3292.73 1626)">-</text><text fill="#FFFFFF" fill-opacity="1" font-family="Calibri,Calibri_MSFontService,sans-serif" font-style="normal" font-variant="normal" font-weight="400" font-stretch="normal" font-size="83" text-anchor="start" direction="ltr" writing-mode="lr-tb" unicode-bidi="normal" text-decoration="none" transform="matrix(1 0 0 1 3317.94 1626)">Judaic </text><text fill="#FFFFFF" fill-opacity="1" font-family="Calibri,Calibri_MSFontService,sans-serif" font-style="normal" font-variant="normal" font-weight="400" font-stretch="normal" font-size="83" text-anchor="start" direction="ltr" writing-mode="lr-tb" unicode-bidi="normal" text-decoration="none" transform="matrix(1 0 0 1 3108.14 1725)">Christianity or </text><text fill="#FFFFFF" fill-opacity="1" font-family="Calibri,Calibri_MSFontService,sans-serif" font-style="normal" font-variant="normal" font-weight="400" font-stretch="normal" font-size="83" text-anchor="start" direction="ltr" writing-mode="lr-tb" unicode-bidi="normal" text-decoration="none" transform="matrix(1 0 0 1 3098.65 1824)">New Paganism </text><text fill="#FFFFFF" fill-opacity="1" font-family="Calibri,Calibri_MSFontService,sans-serif" font-style="normal" font-variant="normal" font-weight="400" font-stretch="normal" font-size="83" text-anchor="start" direction="ltr" writing-mode="lr-tb" unicode-bidi="normal" text-decoration="none" transform="matrix(1 0 0 1 3095.65 1923)">(Germanic and </text><text fill="#FFFFFF" fill-opacity="1" font-family="Calibri,Calibri_MSFontService,sans-serif" font-style="normal" font-variant="normal" font-weight="400" font-stretch="normal" font-size="83" text-anchor="start" direction="ltr" writing-mode="lr-tb" unicode-bidi="normal" text-decoration="none" transform="matrix(1 0 0 1 3244.74 2022)">Norse </text><text fill="#FFFFFF" fill-opacity="1" font-family="Calibri,Calibri_MSFontService,sans-serif" font-style="normal" font-variant="normal" font-weight="400" font-stretch="normal" font-size="83" text-anchor="start" direction="ltr" writing-mode="lr-tb" unicode-bidi="normal" text-decoration="none" transform="matrix(1 0 0 1 3153.21 2121)">mythology)</text><path d="M1394 2147C1394 2046.48 1580.25 1965 1810 1965 2039.75 1965 2226 2046.48 2226 2147 2226 2247.52 2039.75 2329 1810 2329 1580.25 2329 1394 2247.52 1394 2147Z" stroke="#70AD47" stroke-width="2.29167" stroke-linecap="butt" stroke-linejoin="miter" stroke-miterlimit="8" stroke-opacity="1" fill="url(#fill7)" fill-rule="evenodd"/><text fill="#FFFFFF" fill-opacity="1" font-family="Calibri,Calibri_MSFontService,sans-serif" font-style="normal" font-variant="normal" font-weight="400" font-stretch="normal" font-size="83" text-anchor="start" direction="ltr" writing-mode="lr-tb" unicode-bidi="normal" text-decoration="none" transform="matrix(1 0 0 1 1600.32 2125)">anti</text><text fill="#FFFFFF" fill-opacity="1" font-family="Calibri,Calibri_MSFontService,sans-serif" font-style="normal" font-variant="normal" font-weight="400" font-stretch="normal" font-size="83" text-anchor="start" direction="ltr" writing-mode="lr-tb" unicode-bidi="normal" text-decoration="none" transform="matrix(1 0 0 1 1729.04 2125)">-</text><text fill="#FFFFFF" fill-opacity="1" font-family="Calibri,Calibri_MSFontService,sans-serif" font-style="normal" font-variant="normal" font-weight="400" font-stretch="normal" font-size="83" text-anchor="start" direction="ltr" writing-mode="lr-tb" unicode-bidi="normal" text-decoration="none" transform="matrix(1 0 0 1 1754.25 2125)">Semitic, </text><text fill="#FFFFFF" fill-opacity="1" font-family="Calibri,Calibri_MSFontService,sans-serif" font-style="normal" font-variant="normal" font-weight="400" font-stretch="normal" font-size="83" text-anchor="start" direction="ltr" writing-mode="lr-tb" unicode-bidi="normal" text-decoration="none" transform="matrix(1 0 0 1 1592.12 2224)">anti</text><text fill="#FFFFFF" fill-opacity="1" font-family="Calibri,Calibri_MSFontService,sans-serif" font-style="normal" font-variant="normal" font-weight="400" font-stretch="normal" font-size="83" text-anchor="start" direction="ltr" writing-mode="lr-tb" unicode-bidi="normal" text-decoration="none" transform="matrix(1 0 0 1 1720.84 2224)">-</text><text fill="#FFFFFF" fill-opacity="1" font-family="Calibri,Calibri_MSFontService,sans-serif" font-style="normal" font-variant="normal" font-weight="400" font-stretch="normal" font-size="83" text-anchor="start" direction="ltr" writing-mode="lr-tb" unicode-bidi="normal" text-decoration="none" transform="matrix(1 0 0 1 1746.05 2224)">Slavic, …</text></g></g></svg>